<svg version="1.1" id="Layer_1" xmlns="http://www.w3.org/2000/svg" xmlns:xlink="http://www.w3.org/1999/xlink" x="0px" y="0px"
	 width="100%" viewBox="0 0 1024 1024" enable-background="new 0 0 1024 1024" xml:space="preserve">
<path fill="#000000" opacity="1.000000" stroke="none" 
	d="
M345.089996,227.880951 
	C339.870300,222.309616 338.950317,222.248215 333.504150,226.857162 
	C329.572113,230.184753 327.402985,230.218399 324.420624,225.921326 
	C317.825226,216.418457 318.584076,211.217438 327.669861,206.440704 
	C341.542633,199.147247 342.899048,195.922958 340.602203,180.111374 
	C340.369354,178.508362 339.796478,176.816391 338.913086,175.473846 
	C336.813049,172.282333 334.860168,169.301804 337.847137,165.542999 
	C341.246857,161.264755 345.834686,159.466263 350.596741,160.802231 
	C355.410004,162.152573 358.311615,165.634613 358.198425,170.568970 
	C358.131470,173.486740 358.966644,175.770676 361.092682,177.665604 
	C363.828033,180.103638 366.449127,182.685898 369.320435,184.951294 
	C373.049011,187.893036 376.026581,187.409821 378.450928,183.333862 
	C380.137238,180.498703 381.977631,178.591461 385.554413,179.068069 
	C389.308594,179.568329 391.518829,181.559814 392.499969,185.228516 
	C393.011017,187.139450 393.873657,188.993530 394.821869,190.740662 
	C395.928986,192.780624 397.519775,194.154037 400.125885,193.169342 
	C403.815979,191.775101 406.601471,193.215973 408.886169,196.071365 
	C415.439423,204.261429 426.205383,206.461182 433.627747,213.474945 
	C435.617218,215.354935 438.150208,213.917068 440.113525,212.685181 
	C442.337250,211.289856 441.544403,209.145874 440.744720,207.304016 
	C438.889008,203.030014 436.918427,198.804993 434.943970,194.583710 
	C433.331146,191.135529 432.729218,187.576279 433.962860,183.925491 
	C435.211182,180.231262 438.699951,178.429337 441.877014,180.180084 
	C445.955414,182.427521 449.204620,186.135300 449.676910,190.622391 
	C450.043732,194.107544 451.076416,197.062256 452.585388,199.947952 
	C454.840149,204.259766 456.690033,208.666824 457.564453,213.471680 
	C458.462341,218.405701 459.908997,223.105988 462.599121,227.452652 
	C465.608704,232.315582 463.698456,237.463348 462.858917,242.517349 
	C462.271820,246.051804 460.815521,249.472733 462.419922,253.222748 
	C464.684967,258.516907 467.611176,260.783569 473.438171,260.662170 
	C497.756561,260.155457 522.085754,260.558899 546.400757,260.462646 
	C579.047607,260.333374 611.714355,260.340057 644.371521,260.555145 
	C650.353577,260.594574 656.337646,259.934509 662.324829,259.704803 
	C668.700378,259.460175 672.991333,263.161163 676.113464,268.032318 
	C678.821899,272.258087 677.263184,275.672516 672.450378,277.342072 
	C668.207886,278.813782 663.865051,279.977020 659.932861,282.259552 
	C654.840698,285.215393 652.716858,289.062134 655.122192,294.306549 
	C658.419739,301.496185 656.733704,307.102631 651.726257,312.428711 
	C649.789368,314.488892 648.242249,317.049561 646.000793,318.665375 
	C637.904968,324.501648 631.268372,331.569763 626.280640,340.213684 
	C625.226196,342.041107 623.374329,342.737152 621.430420,343.451721 
	C611.791626,346.994720 601.518799,347.190582 591.616089,349.304932 
	C589.675903,349.719208 587.688354,350.169098 585.899170,350.988068 
	C578.402100,354.419647 576.429504,361.759918 581.280212,368.221375 
	C583.978699,371.815918 586.879272,375.261902 589.758667,378.716553 
	C592.635620,382.168335 592.749084,385.414093 589.817261,389.015686 
	C587.089233,392.366852 585.045471,396.290283 582.215759,399.539581 
	C578.358704,403.968414 578.804077,407.914001 581.791870,412.623840 
	C586.162476,419.513489 589.812988,426.695038 587.834045,435.484955 
	C587.044922,438.990112 587.263855,442.767456 587.346680,446.413513 
	C587.482849,452.408783 589.573364,457.698212 593.240662,462.520813 
	C599.145630,470.286041 602.271179,478.481049 598.412659,488.546753 
	C595.756775,495.474884 595.476013,503.240387 591.897705,509.953400 
	C590.146301,513.239075 588.383972,516.856750 583.572937,514.675781 
	C578.158752,512.221375 576.510376,508.406250 578.567444,503.373383 
	C579.131226,501.993866 579.953125,500.721771 580.614624,499.379730 
	C581.267517,498.054993 581.389038,496.793457 579.866455,495.941345 
	C578.455933,495.152039 577.033752,495.468353 576.427124,496.819519 
	C574.080139,502.047668 568.495605,505.831696 570.189880,512.915833 
	C571.284302,517.491821 568.511963,521.279785 565.040405,524.188416 
	C561.768494,526.929810 558.455444,525.660461 557.724426,521.551453 
	C556.701660,515.802307 560.457092,508.422089 566.055420,505.661499 
	C563.312073,501.024292 563.767029,495.833038 563.607483,490.713318 
	C563.545349,488.719360 563.384766,486.189606 560.837036,486.148621 
	C558.549438,486.111847 558.346436,488.595032 558.236755,490.353363 
	C557.622925,500.198578 553.566345,509.002869 549.993530,517.940552 
	C547.634949,523.840820 543.357422,528.306030 538.248352,531.892456 
	C534.980164,534.186707 531.348083,534.671570 528.213379,531.546021 
	C525.089417,528.431152 524.135498,525.021545 526.627014,520.769287 
	C529.805176,515.345459 533.688293,510.380432 535.668518,504.166382 
	C538.749634,494.497803 534.608093,487.538208 528.550964,480.570526 
	C525.292725,483.927094 526.531311,487.559662 527.718445,490.579315 
	C530.118042,496.683136 528.878845,501.794739 525.416077,507.047577 
	C520.064514,515.165710 516.336975,524.042236 514.155945,533.569885 
	C513.299622,537.310547 511.532501,540.761353 509.615875,544.086304 
	C508.256256,546.444885 506.249969,547.818420 503.398346,547.211731 
	C500.312988,546.555298 499.618744,544.128967 499.728302,541.487183 
	C499.934723,536.509583 500.391113,531.542786 500.658447,526.566895 
	C500.726990,525.291382 500.967163,523.846863 498.900574,522.518372 
	C494.895325,528.669861 494.802399,536.586487 490.032379,543.016663 
	C486.355347,539.328796 483.937988,535.531616 485.094727,530.533630 
	C486.417175,524.819458 486.636444,518.991333 487.447937,513.229065 
	C487.786591,510.824432 488.253754,508.241364 485.818359,505.555389 
	C481.088287,513.681946 480.289001,522.122864 481.584595,531.223572 
	C477.845123,531.210449 475.223358,529.336487 472.614685,527.879150 
	C461.239960,521.524841 450.051025,520.231323 438.857086,528.230591 
	C436.429504,529.965393 433.511871,530.124207 430.675323,529.889954 
	C423.337128,529.283813 416.024078,529.685974 408.724487,530.310181 
	C405.560913,530.580750 403.602356,529.583435 402.744690,526.457642 
	C400.361053,517.770386 400.584534,508.620880 397.973755,499.962067 
	C397.322052,497.800690 399.139954,496.995697 400.921539,496.855103 
	C412.447021,495.945648 419.925446,486.971466 429.636353,482.448578 
	C431.221100,481.710510 432.713684,480.055115 431.832703,477.939148 
	C430.980347,475.891937 429.196960,474.832916 426.953979,475.426758 
	C422.072784,476.719086 417.173157,477.187561 411.988770,475.821625 
	C413.997467,481.115784 408.019012,489.634308 401.952667,489.932495 
	C392.316711,490.406189 382.689789,491.042328 373.004761,490.922089 
	C354.191559,490.688507 335.370514,491.096588 316.552612,491.222046 
	C314.740051,491.234131 313.495605,491.879456 312.481506,493.512878 
	C305.542267,504.690033 298.491058,515.797607 291.517517,526.953552 
	C290.729431,528.214294 290.048737,529.587769 289.591644,530.997620 
	C289.071564,532.601746 289.877686,533.914124 291.117523,534.933044 
	C292.208069,535.829407 293.282837,535.495789 294.329742,534.803833 
	C302.864471,529.162842 311.415955,530.634033 319.863983,534.919678 
	C322.970520,536.495667 326.079285,535.698425 329.176392,535.513855 
	C354.944366,533.977905 380.696014,532.798645 406.527344,534.450378 
	C417.651611,535.161743 428.848755,534.737244 440.012878,534.818542 
	C443.996185,534.847595 446.970734,531.944092 450.820129,531.246399 
	C462.683899,529.096191 475.803558,536.480530 481.806702,549.170776 
	C485.950378,557.930237 482.352661,569.478271 473.269135,576.574829 
	C463.712616,584.040955 450.061066,583.750793 440.431458,576.044373 
	C432.414368,569.628357 428.766815,561.640137 431.272400,551.425720 
	C432.160034,547.807312 430.796051,546.339722 427.376099,546.349915 
	C405.880371,546.414246 384.384369,546.462524 362.889252,546.622864 
	C353.893707,546.689941 344.900879,547.115540 335.905334,547.182495 
	C332.083862,547.210999 331.083527,548.342163 331.962158,552.308228 
	C334.287994,562.806763 330.607239,572.072998 322.066132,577.508545 
	C312.306946,583.719360 301.933014,584.723206 291.846039,578.666748 
	C280.487915,571.847107 277.347534,563.231812 280.965881,550.564270 
	C281.891113,547.325134 281.611572,544.860046 279.443512,542.295532 
	C274.507751,536.456970 274.434204,530.221985 278.460205,523.853088 
	C284.689514,513.998413 290.893433,504.127075 297.221039,494.335785 
	C298.709839,492.032043 298.815002,490.264465 297.623810,487.584869 
	C289.756805,469.887421 284.918427,451.170929 279.659790,432.600739 
	C273.677002,411.473083 267.754822,390.327118 261.581329,369.255035 
	C258.751709,359.596710 253.668121,356.075745 243.656448,356.076355 
	C236.824127,356.076782 229.991745,356.217133 223.159485,356.302338 
	C218.465225,356.360901 215.700089,353.824432 214.428452,349.561707 
	C213.494064,346.429535 214.925003,343.938782 217.428284,342.237213 
	C219.694199,340.696960 222.319122,340.653595 224.289612,342.713287 
	C226.024307,344.526550 228.005371,344.671631 230.203461,344.663116 
	C235.536423,344.642487 240.869629,344.639587 246.202560,344.667633 
	C260.025848,344.740265 268.534271,350.695709 272.954773,363.581268 
	C277.106659,375.683929 274.553864,373.643951 287.307587,373.738312 
	C302.472382,373.850525 317.639069,373.691010 332.804688,373.731079 
	C335.023041,373.736938 338.041321,372.954254 338.930939,375.744293 
	C339.878632,378.716583 339.917236,382.094147 338.814362,385.083679 
	C338.152130,386.878876 335.905182,386.224854 334.300140,386.355621 
	C318.493439,387.643219 302.659607,386.856842 286.837250,386.969269 
	C284.705048,386.984436 282.506805,386.554993 280.287140,387.751923 
	C280.173187,391.305298 281.831024,394.423767 282.987213,397.658142 
	C283.686066,399.613190 285.385925,399.714722 287.117004,399.685486 
	C301.274689,399.446320 315.434692,399.987976 329.596588,399.284210 
	C335.899628,398.970947 342.243622,399.578278 348.569641,399.602020 
	C354.007782,399.622437 354.901337,398.021637 352.286652,393.347260 
	C350.664795,390.447754 349.054596,387.637299 348.609131,384.172821 
	C347.666718,376.844269 350.026733,371.187439 356.026947,366.878876 
	C358.452271,365.137360 360.732635,363.143494 362.846924,361.032104 
	C365.484833,358.397858 365.554993,355.276917 362.195984,353.522217 
	C353.348450,348.900360 345.572662,342.240448 335.939148,339.193939 
	C329.992981,337.313477 325.659821,333.971954 322.911285,328.414642 
	C320.541473,323.623077 317.006897,320.028778 311.975433,317.938049 
	C310.462982,317.309601 309.057220,316.309418 307.772552,315.269562 
	C304.205597,312.382324 302.581207,308.745758 304.325592,304.230469 
	C305.993866,299.912079 310.393219,297.596344 315.270844,298.234009 
	C322.761719,299.213379 324.090240,297.957642 323.653931,290.398560 
	C323.484863,287.469299 322.310822,284.585724 323.924011,281.606934 
	C326.756989,276.375854 331.603577,275.583984 335.576080,279.967560 
	C337.137024,281.690002 338.321869,283.794556 340.033112,285.329010 
	C342.144836,287.222626 344.151001,287.701416 344.777649,283.790955 
	C345.169556,281.345062 345.880737,278.903900 346.794312,276.597504 
	C348.833008,271.450592 352.945221,270.246460 357.639313,273.291962 
	C359.033844,274.196716 360.319550,275.269684 361.651337,276.270599 
	C363.946747,277.995667 366.088593,278.485931 368.063934,275.739929 
	C370.007751,273.037750 372.605560,273.552673 375.283112,274.408051 
	C379.807007,275.853271 384.045776,278.037598 389.122925,275.047272 
	C391.877625,273.424835 395.351257,276.831238 399.686859,276.053925 
	C398.095123,269.540009 397.540222,262.732971 394.670868,257.106171 
	C392.726807,253.293961 386.797241,252.481140 382.463348,251.029037 
	C376.787567,249.127350 371.834045,246.440994 367.535828,242.320068 
	C366.246826,241.084259 364.569000,239.649200 362.942627,239.472733 
	C355.096313,238.621445 350.161102,233.522430 345.089996,227.880951 
M439.238098,459.352173 
	C444.076141,470.057190 451.951965,478.408417 460.277832,486.391083 
	C467.588898,493.400848 467.620667,493.361420 474.915710,486.650116 
	C475.896271,485.748077 476.981964,484.955231 477.921051,484.014099 
	C485.566406,476.352417 493.605957,468.965546 496.766785,458.053436 
	C497.549835,455.349976 499.178711,455.220001 501.348053,456.370148 
	C513.317078,462.715973 526.401733,462.272675 539.363647,462.674042 
	C542.659851,462.776123 543.794250,461.360260 543.720215,458.208069 
	C543.591248,452.712097 543.699646,447.210815 543.684509,441.711823 
	C543.662598,433.754517 544.555908,425.691681 540.048096,418.376892 
	C538.468689,415.813995 540.353455,414.342590 542.594666,413.520142 
	C556.193665,408.529541 564.081726,397.141510 572.870239,386.718048 
	C574.774902,384.459106 574.133301,383.000549 572.375916,381.222107 
	C569.566895,378.379333 566.795349,375.486420 564.189819,372.458252 
	C557.512024,364.697479 550.587708,357.340149 539.800049,355.575256 
	C539.504272,351.930176 541.709595,349.348480 542.604492,346.375916 
	C546.073059,334.854401 542.856140,323.199677 543.442261,311.626160 
	C543.551575,309.467255 541.786438,308.335602 539.740173,308.359650 
	C526.823792,308.511230 513.644714,306.835358 501.574799,313.341797 
	C498.852173,314.809479 497.305450,314.357574 496.429138,311.277252 
	C495.133118,306.721436 492.630951,302.819183 489.619995,299.174255 
	C483.876373,292.221313 477.405426,285.984100 471.049774,279.615753 
	C468.616577,277.177704 467.246979,277.726074 464.889343,279.627991 
	C458.486816,284.792786 453.601440,291.417725 447.608582,296.952606 
	C443.814941,300.456299 441.219360,304.674896 440.273590,309.730408 
	C439.469055,314.030823 437.452728,314.584198 433.616547,313.046600 
	C421.593933,308.227783 408.840088,308.718689 396.223145,308.387817 
	C393.910919,308.327148 392.349396,309.439850 392.392761,311.975677 
	C392.543671,320.798004 392.166412,329.616302 392.678680,338.449005 
	C393.018921,344.315948 396.539948,348.913147 398.439178,354.355896 
	C394.683380,355.971649 391.268127,357.219574 388.055634,358.863708 
	C377.740784,364.142792 372.316376,374.492950 364.247406,382.112396 
	C363.189484,383.111328 363.595520,384.162506 364.312714,385.243683 
	C366.608185,388.703949 368.601349,392.393127 371.147644,395.653046 
	C377.780731,404.144958 385.629211,411.235352 396.332581,415.265137 
	C390.679443,427.492249 392.565948,440.104919 392.367981,452.509521 
	C392.196686,463.244568 391.565125,462.059113 401.602173,461.831451 
	C413.005981,461.572754 424.698273,463.157379 435.174957,456.656158 
	C437.237885,455.376007 438.107025,457.195770 439.238098,459.352173 
M354.448608,411.412964 
	C334.972931,411.649048 315.497681,411.932892 296.021393,412.101196 
	C286.190033,412.186157 286.151062,412.288330 289.226959,421.840332 
	C290.363129,425.368744 292.066071,426.923828 295.950500,426.779572 
	C303.433167,426.501801 310.934296,426.735962 318.427704,426.727905 
	C334.580170,426.710602 350.732788,426.699524 366.884979,426.617310 
	C369.170776,426.605682 371.922821,426.790161 372.950409,424.174377 
	C373.969971,421.579010 372.313019,419.540802 370.744446,417.450500 
	C366.815796,412.215149 361.683594,410.466461 354.448608,411.412964 
M373.650421,439.472137 
	C371.331207,439.336029 369.011841,439.080872 366.692780,439.083344 
	C352.729614,439.098114 338.766571,439.207947 324.803467,439.212311 
	C316.659424,439.214844 308.515289,439.033508 300.371338,439.045288 
	C298.667358,439.047729 296.445129,438.482819 295.672058,440.815460 
	C294.037537,445.747589 299.975983,453.812836 305.203461,453.628326 
	C326.301514,452.883606 347.403351,452.737823 368.510712,452.949829 
	C370.502045,452.969818 372.496521,452.801544 374.487518,452.686035 
	C375.693573,452.616089 377.221375,452.333954 377.039307,450.925842 
	C376.548584,447.131378 378.048187,442.820496 373.650421,439.472137 
M356.666016,478.637756 
	C364.751587,478.683594 372.831818,478.652557 381.033325,477.335693 
	C380.212555,474.731842 379.093719,472.573212 378.917603,470.340210 
	C378.525513,465.369629 375.988647,464.115570 371.310730,464.228699 
	C349.831207,464.748077 328.344513,464.967468 306.860962,465.328888 
	C305.609741,465.349915 304.147583,464.917786 303.053925,466.585632 
	C303.821014,468.748505 304.901703,471.018402 305.414642,473.410034 
	C306.367676,477.853882 308.928131,478.789185 313.281860,478.838379 
	C327.430084,478.998352 341.567230,477.109711 356.666016,478.637756 
M450.356232,567.408386 
	C452.592102,568.772217 455.071106,568.826111 457.590210,568.859009 
	C463.479858,568.935974 467.348480,565.838074 469.765686,560.857300 
	C472.026733,556.198364 468.730103,552.841614 466.150970,549.764282 
	C462.944641,545.938721 458.840881,543.479614 453.409302,544.789185 
	C447.946259,546.106384 444.762817,549.775635 443.548126,554.961853 
	C442.254089,560.486938 445.582947,564.042603 450.356232,567.408386 
M301.901306,546.195496 
	C296.059906,549.576050 292.497253,555.256958 293.442383,560.261841 
	C294.498688,565.855347 298.965179,567.846252 303.776703,569.163635 
	C309.134888,570.630554 316.382141,566.904358 318.683136,561.667419 
	C320.704041,557.068176 318.179535,550.666687 313.070892,547.609985 
	C309.824890,545.667786 306.402069,544.561157 301.901306,546.195496 
z"/>
<path fill="#000000" opacity="1.000000" stroke="none" 
	d="
M722.744141,536.165955 
	C724.048767,541.565247 726.568970,546.242615 726.340393,551.563416 
	C726.254578,553.559753 726.556946,555.849060 724.365906,556.837280 
	C721.753357,558.015625 719.278687,556.897095 717.587524,554.957092 
	C713.101196,549.810181 709.136108,544.253357 705.651978,538.366699 
	C703.977661,535.538025 702.281250,532.722351 700.562683,529.846985 
	C698.585205,531.115967 699.106140,532.789795 699.001831,534.163208 
	C698.520447,540.494995 696.139771,545.740845 690.723633,549.351746 
	C688.677612,550.715820 688.209412,552.750427 688.212646,555.013245 
	C688.220581,560.509033 688.248718,566.004944 688.209778,571.500427 
	C688.196838,573.322937 688.289246,575.217529 687.842590,576.952820 
	C686.163147,583.476929 681.301453,584.831848 676.372986,580.237366 
	C672.250427,576.394165 670.805237,571.243164 669.718201,565.994141 
	C666.980347,552.773376 665.636841,539.422363 665.592407,525.896790 
	C665.549805,512.933716 665.279846,499.954987 663.661316,487.063965 
	C663.395386,484.945465 662.906738,482.730743 661.960449,480.841187 
	C653.673645,464.291901 649.830078,445.973114 641.405029,429.478577 
	C639.458069,425.666901 637.747009,421.778137 633.973938,418.502319 
	C632.512634,424.650574 634.622742,429.826233 635.994873,434.974884 
	C638.947754,446.054749 644.014771,456.579132 645.629333,467.979065 
	C646.783997,476.131714 647.618835,484.548248 644.156860,492.516968 
	C643.242126,494.622314 642.090088,497.177490 639.336609,496.931274 
	C636.526245,496.679932 636.012207,494.046692 635.632324,491.684998 
	C634.973389,487.587372 633.616211,483.446869 633.835266,479.393677 
	C634.392761,469.079620 629.331238,461.636017 622.726990,454.699860 
	C620.687134,452.557495 618.849854,450.222321 616.908691,447.962433 
	C613.650146,451.297699 613.071777,457.083832 617.219666,460.824524 
	C625.816711,468.577637 623.039490,478.229828 623.026489,487.459747 
	C623.021179,491.246826 622.211548,495.042847 621.636597,498.814758 
	C621.359436,500.632935 620.859741,502.533905 618.742554,503.098999 
	C616.468750,503.705963 614.892273,502.302643 613.575195,500.777344 
	C610.610046,497.343414 610.446167,493.193726 610.913574,488.963074 
	C611.169067,486.650482 611.696289,484.364868 611.891846,482.049408 
	C612.294128,477.286560 611.379822,473.269135 607.848694,469.344269 
	C601.336060,462.105316 594.331909,454.647156 595.734924,443.630310 
	C596.451599,438.003418 597.030823,432.484741 596.240051,426.782776 
	C595.734253,423.135345 595.242065,419.548218 594.032104,416.069244 
	C593.030334,413.188660 592.690735,410.266937 593.282104,407.219635 
	C594.510132,400.891357 599.938232,398.879730 605.071106,402.939636 
	C608.020264,405.272186 609.401978,408.815308 611.692627,411.656433 
	C613.676758,414.117340 615.720825,416.532288 617.809570,418.904877 
	C618.324829,419.490234 619.116699,419.832062 620.111206,420.510986 
	C622.318970,416.962677 622.374207,413.195129 622.629395,409.501160 
	C622.823792,406.687012 622.379578,403.822937 623.275024,401.065674 
	C623.986389,398.875275 625.341064,397.129547 627.631836,396.675140 
	C630.064941,396.192535 631.134949,398.190765 632.151428,399.913483 
	C635.179077,405.044281 636.907593,411.024323 641.767151,414.950989 
	C643.895203,416.670441 645.740417,419.221954 649.107056,418.326508 
	C652.202209,417.503265 653.927917,415.809570 653.729553,412.278778 
	C653.330811,405.180664 651.584473,398.002502 654.087585,390.992645 
	C656.322754,384.733215 658.843018,378.575684 661.231506,372.370880 
	C663.084717,367.556519 664.984253,362.758881 666.754822,357.914215 
	C667.729431,355.247375 669.814087,353.743073 672.140198,354.965149 
	C678.164856,358.130402 681.824463,355.858398 684.674744,350.576263 
	C684.896118,350.166046 685.376465,349.871399 685.785156,349.595245 
	C686.045288,349.419434 686.395630,349.377045 686.711548,349.274414 
	C688.655640,349.752960 689.096191,351.409637 689.617065,352.995178 
	C699.270630,382.383667 707.508057,412.121216 711.411133,442.897644 
	C713.685364,460.830322 717.113831,478.663513 716.344421,496.878235 
	C716.246399,499.198395 716.185669,501.471008 715.658813,503.794342 
	C714.715576,507.954407 715.078186,512.349548 717.360107,515.893066 
	C721.319092,522.040710 722.916443,528.594055 722.744141,536.165955 
z"/>
<path fill="#000000" opacity="1.000000" stroke="none" 
	d="
M601.131958,660.884644 
	C602.045776,662.477539 602.779297,663.776794 603.277466,664.659180 
	C610.093811,656.479980 618.563477,651.414124 629.676025,651.450073 
	C631.005493,651.454346 632.333618,651.699219 633.663757,651.715027 
	C635.572998,651.737732 638.247375,652.799500 638.989868,650.426819 
	C639.857544,647.653931 637.088989,646.531555 635.115417,645.366516 
	C628.529175,641.478333 621.597473,642.673035 614.768677,644.343201 
	C611.559570,645.128113 609.487976,645.118530 608.300415,641.404053 
	C607.142456,637.782166 606.967224,634.863220 610.938904,633.075684 
	C621.700623,628.232056 632.977783,626.391846 643.758057,631.686829 
	C651.729614,635.602173 655.954163,643.096802 656.373108,652.413086 
	C656.775818,661.368774 656.865967,670.383118 659.253601,679.134338 
	C659.587219,680.357178 659.540649,681.777100 661.344482,682.794800 
	C666.539734,667.331055 678.868469,656.878357 688.700684,643.583252 
	C682.639160,643.855103 677.388306,643.874634 672.185913,644.386353 
	C667.245300,644.872375 664.966064,643.271606 665.583496,638.066162 
	C665.873779,635.618347 665.633179,633.107422 665.633179,630.527161 
	C666.294373,629.777100 667.307556,629.799072 668.307922,629.796814 
	C683.135559,629.764099 697.963257,629.710999 712.790894,629.714783 
	C718.487732,629.716248 719.116577,630.735718 716.746765,635.776978 
	C715.534302,638.356140 713.915344,640.655212 712.079224,642.838989 
	C705.112183,651.125549 698.185242,659.446167 691.284973,667.788452 
	C690.029785,669.305969 688.714722,670.844116 688.299805,673.350525 
	C698.051636,674.335388 707.675598,675.505920 717.792786,671.833008 
	C718.705444,677.117615 718.328918,681.710938 718.191223,686.261292 
	C718.130066,688.283691 716.329895,688.354980 714.806519,688.342773 
	C702.319702,688.242859 689.826660,688.789856 677.349060,687.715637 
	C671.392029,687.202698 665.418579,686.906860 659.448792,688.042542 
	C653.620361,689.151428 647.847595,687.591614 642.052429,687.223450 
	C639.181824,687.041138 640.163147,684.178040 638.945068,681.567993 
	C633.469360,689.690308 626.369080,692.031982 617.656799,688.544067 
	C609.969177,685.466431 603.022888,681.719543 602.512695,671.042969 
	C595.085144,685.343079 583.313477,689.402771 568.812866,688.463623 
	C561.016846,687.958679 553.149719,688.213440 545.331970,688.539551 
	C542.009705,688.678101 540.963989,687.713074 540.787659,684.480652 
	C539.826233,666.854553 538.930969,649.246826 540.479980,631.596191 
	C540.944580,626.302185 540.757080,620.936218 540.618225,615.609741 
	C540.535706,612.440308 541.714478,610.729187 544.907715,611.069885 
	C555.032471,612.150452 565.194336,610.140808 575.322449,611.626221 
	C584.937317,613.036377 591.855042,618.256348 596.767273,626.338135 
	C600.256836,632.079346 597.256531,636.917114 594.027771,641.499512 
	C592.507141,643.657593 590.546753,645.505676 588.542358,647.768921 
	C592.623291,652.154053 597.448853,655.758972 601.131958,660.884644 
M569.238831,655.124695 
	C566.420776,655.151917 563.601868,655.145142 560.785095,655.219543 
	C559.178650,655.261963 558.012634,655.865723 557.473083,657.618347 
	C553.699219,669.877319 557.849915,675.310791 570.549866,674.629517 
	C571.374023,674.585327 572.230957,674.590210 573.009949,674.360352 
	C577.096008,673.153992 581.127625,671.655640 581.745239,666.692688 
	C582.334290,661.959534 579.183716,659.077271 575.852600,656.462830 
	C574.174988,655.146240 572.117798,655.261963 569.238831,655.124695 
M578.540100,631.229675 
	C575.400024,626.045654 565.070374,622.992615 559.725403,625.626953 
	C558.711060,626.126953 558.356018,626.920105 558.115723,627.929871 
	C555.460632,639.086914 560.076660,643.746887 571.328979,641.245361 
	C577.040466,639.975586 578.614746,637.992188 578.540100,631.229675 
M637.112366,663.415710 
	C631.790344,660.969604 627.103333,663.041382 622.643188,665.693054 
	C620.670837,666.865723 620.736267,669.123779 621.353271,671.120422 
	C622.078735,673.468201 623.505554,675.540466 626.157959,675.520630 
	C630.195496,675.490540 634.294495,674.430542 637.432800,672.091736 
	C640.089600,670.111694 637.404785,666.826294 637.112366,663.415710 
z"/>
<path fill="#000000" opacity="1.000000" stroke="none" 
	d="
M527.000000,584.809387 
	C569.988892,584.780029 612.477722,584.761292 654.966614,584.704468 
	C659.975464,584.697815 664.955811,584.957153 669.906311,585.692749 
	C671.214722,585.887146 672.512207,586.221863 673.780823,586.604370 
	C678.068237,587.897095 679.362854,591.476013 679.087341,595.213745 
	C678.763184,599.611450 674.776733,598.012268 672.334961,597.979248 
	C563.370605,596.504944 454.401917,597.466003 345.436340,597.532166 
	C321.456177,597.546692 297.472290,598.203857 273.478546,597.971985 
	C248.998718,597.735413 224.513779,598.029663 200.031067,598.086609 
	C196.679199,598.094421 193.338593,598.159729 190.882202,595.189636 
	C187.727081,591.374756 188.583740,587.396362 193.203995,585.632385 
	C194.707565,585.058411 196.454071,584.921753 198.089645,584.920837 
	C307.559753,584.861389 417.029877,584.836487 527.000000,584.809387 
z"/>
<path fill="#000000" opacity="1.000000" stroke="none" 
	d="
M757.000244,739.664795 
	C768.148376,739.655090 778.798706,739.756897 789.443542,739.561646 
	C793.026917,739.495972 794.313843,740.578369 794.558960,744.307007 
	C795.456238,757.955933 793.906738,771.563599 794.207947,785.199768 
	C794.309509,789.798767 791.189026,792.314514 786.401184,792.322998 
	C763.773987,792.363220 741.146301,792.276428 718.519470,792.380493 
	C714.836060,792.397400 713.559082,791.057007 713.589600,787.420593 
	C713.711121,772.946838 713.723267,758.470276 713.553284,743.997375 
	C713.511902,740.471863 715.080322,739.870056 718.069946,739.872803 
	C730.879944,739.884521 743.690125,739.744690 757.000244,739.664795 
z"/>
<path fill="#000000" opacity="1.000000" stroke="none" 
	d="
M304.321472,781.806396 
	C304.117706,790.918762 302.672882,792.347961 294.032288,792.343506 
	C273.891479,792.333130 253.750626,792.319763 233.609848,792.278015 
	C226.648407,792.263550 225.785339,791.060303 225.750443,784.012817 
	C225.686340,771.057434 227.647903,758.107544 225.820526,745.145996 
	C225.360413,741.882446 226.088135,739.667480 230.262207,739.954102 
	C252.549881,741.484741 274.827606,739.009155 297.120575,739.658447 
	C304.283295,739.867126 304.306854,739.715271 304.316925,746.876099 
	C304.333130,758.361389 304.321106,769.846680 304.321472,781.806396 
z"/>
<path fill="#000000" opacity="1.000000" stroke="none" 
	d="
M369.805786,673.953674 
	C366.466827,667.068726 366.375397,660.107910 366.756561,653.068909 
	C367.317780,642.704956 381.192596,627.684509 393.830627,628.761353 
	C399.470184,629.241882 405.110596,629.671753 410.430206,631.762939 
	C412.021393,632.388489 413.259338,632.648987 414.296967,631.016357 
	C414.881836,630.096069 415.806152,629.861633 416.835510,629.671936 
	C426.165344,627.952332 428.086609,629.372131 428.184753,638.778748 
	C428.313324,651.096558 428.864960,663.421997 427.564758,675.728699 
	C427.271515,678.503906 427.877472,681.363220 427.912201,684.185791 
	C428.110657,700.314148 415.058563,709.391296 403.375641,710.085388 
	C391.866760,710.769104 380.413483,709.814758 369.125122,707.399902 
	C365.800446,706.688660 362.670135,705.556396 362.475403,701.198181 
	C362.283569,696.905884 365.169006,695.393433 368.431183,694.282043 
	C376.747894,691.448730 384.890930,694.259521 393.066437,695.296875 
	C396.188080,695.692932 399.208405,696.757935 402.421844,696.722778 
	C408.609955,696.655212 411.155334,693.590576 410.160614,686.526917 
	C404.511322,687.672363 398.753845,687.893799 393.009918,688.265198 
	C381.917572,688.982361 374.544159,684.069641 369.805786,673.953674 
M387.307007,658.037964 
	C387.603729,661.432373 389.060242,664.408203 390.736450,667.280518 
	C392.203247,669.794067 394.405853,671.160156 397.370361,670.640259 
	C401.178833,669.972412 404.744507,668.606201 407.534729,665.814636 
	C411.642059,661.705200 412.627197,654.594055 409.894318,649.703186 
	C407.052368,644.617249 399.732452,641.765442 393.881897,643.464844 
	C389.793915,644.652283 387.318756,649.394226 387.237549,656.200317 
	C387.233612,656.531616 387.253174,656.863098 387.307007,658.037964 
z"/>
<path fill="#000000" opacity="1.000000" stroke="none" 
	d="
M193.076111,667.286987 
	C194.374283,650.527588 193.385422,634.216003 193.624969,617.917542 
	C193.726730,610.992249 193.728455,610.923584 200.492462,611.029236 
	C210.783997,611.189819 221.107498,610.611389 231.332779,612.401306 
	C249.358063,615.556641 253.307968,636.566162 241.952896,645.256287 
	C241.469391,645.626282 241.197906,646.273438 240.698410,646.972290 
	C242.686188,649.390747 245.692413,650.355347 247.509872,652.811768 
	C255.441666,663.531921 252.350510,677.864929 240.450363,684.359863 
	C235.726318,686.938232 230.639709,688.333618 225.173706,688.306946 
	C216.022018,688.262268 206.865356,688.203552 197.719757,688.464844 
	C194.066483,688.569214 192.558746,687.515686 192.763016,683.728943 
	C193.049606,678.415833 192.972534,673.083252 193.076111,667.286987 
M234.063828,667.405212 
	C235.802673,662.147034 233.429596,658.685425 228.980072,656.372253 
	C223.930832,653.747314 218.554123,655.207336 213.298660,655.561707 
	C212.177017,655.637390 211.725296,656.680847 211.698837,657.772827 
	C211.594315,662.085999 211.492325,666.399353 211.419327,670.713135 
	C211.395386,672.128784 211.791306,673.234680 213.340225,673.814514 
	C219.080231,675.963379 229.859116,672.975342 234.063828,667.405212 
M230.593597,632.695740 
	C227.965668,625.192078 224.177048,623.223572 214.299042,625.429199 
	C208.715729,626.675903 212.310013,631.748901 211.399429,634.981873 
	C211.099136,636.048035 211.362381,637.282837 211.422470,638.437744 
	C211.477982,639.503967 212.019653,640.219482 212.986725,640.759583 
	C219.857941,644.596741 228.680695,640.951050 230.593597,632.695740 
z"/>
<path fill="#000000" opacity="1.000000" stroke="none" 
	d="
M775.939087,688.219421 
	C773.988953,688.325928 772.423706,688.124268 771.006226,688.491943 
	C766.199097,689.739197 762.779663,688.622314 761.689148,683.548157 
	C760.004822,682.866943 759.283630,684.042419 758.425537,684.690979 
	C748.190796,692.426697 732.014282,690.773315 723.513733,681.090698 
	C717.541199,674.287659 718.284119,664.707520 725.419556,659.062439 
	C733.083984,652.999023 742.208252,651.360229 751.659912,650.946106 
	C753.614502,650.860474 755.575928,650.933594 758.022583,650.933594 
	C756.597290,645.856934 753.398193,643.881470 749.238647,643.339111 
	C743.885498,642.641113 738.543152,642.914795 733.609558,645.368042 
	C729.955261,647.185181 727.675659,646.593018 726.503662,642.455261 
	C725.736816,639.748169 724.624329,637.139038 723.481384,633.972534 
	C737.293457,629.351379 750.919678,625.248230 764.944519,632.344238 
	C771.352417,635.586243 774.711365,641.328491 775.245117,648.438843 
	C775.780762,655.573059 776.030762,662.736023 776.157104,669.890747 
	C776.222656,673.604248 777.161926,677.102600 777.792542,680.695068 
	C778.232422,683.201172 779.919983,686.278076 775.939087,688.219421 
M743.828613,663.132141 
	C740.320435,664.148010 737.587646,665.884460 738.418457,670.124573 
	C739.229431,674.263428 742.259766,675.650146 746.138733,675.675659 
	C748.131470,675.688782 750.140747,675.812439 752.114014,675.609070 
	C757.030640,675.102356 758.923035,672.532654 758.682068,667.519531 
	C758.448914,662.667358 755.454285,661.882263 751.522217,662.217468 
	C749.214661,662.414246 746.910095,662.645325 743.828613,663.132141 
z"/>
<path fill="#000000" opacity="1.000000" stroke="none" 
	d="
M369.612518,708.794678 
	C373.488495,709.493469 377.069275,709.796814 378.664001,713.755615 
	C380.440338,718.165344 378.853851,721.003174 374.095367,721.241577 
	C369.607666,721.466370 365.104401,721.402161 360.607758,721.424988 
	C325.637817,721.602295 290.667236,721.960876 255.698029,721.861450 
	C237.555145,721.809875 219.416992,720.852478 201.273087,722.004639 
	C198.987167,722.149780 196.605789,721.783752 194.356567,721.269775 
	C191.394470,720.592834 189.049896,718.724121 188.879745,715.563232 
	C188.689743,712.033508 191.258347,710.113892 194.345596,709.367615 
	C196.733459,708.790405 199.290970,708.752930 201.773178,708.752075 
	C257.568420,708.733215 313.363678,708.752625 369.612518,708.794678 
z"/>
<path fill="#000000" opacity="1.000000" stroke="none" 
	d="
M506.962952,659.922363 
	C505.799164,669.454712 507.921326,678.439209 508.369537,688.255920 
	C501.693268,686.682800 494.333466,691.914062 490.480957,682.498779 
	C484.725311,687.527039 478.468414,689.911194 471.081085,689.379639 
	C461.904053,688.719299 453.273773,680.456482 452.884888,671.283386 
	C452.618683,665.004395 456.297363,661.001770 461.351807,658.223022 
	C468.437836,654.327454 476.171204,652.446960 484.205750,651.760803 
	C485.504913,651.649841 486.800720,651.499084 488.061066,651.370483 
	C488.199341,646.354614 484.583923,642.830933 478.931885,642.435547 
	C474.899567,642.153503 471.015930,642.935852 467.230499,644.411438 
	C462.800262,646.138428 462.144104,642.343079 461.264313,639.726562 
	C460.394745,637.140442 458.265991,633.320679 462.709686,632.220703 
	C470.848541,630.206238 478.907013,627.433167 487.667847,629.545044 
	C500.242584,632.576477 506.210236,639.153259 506.901978,651.960938 
	C507.036377,654.449524 506.948547,656.950134 506.962952,659.922363 
M477.075195,675.596069 
	C480.640594,675.990784 484.027283,675.576416 486.939270,673.264038 
	C489.585510,671.162598 490.221252,668.211914 489.470795,665.201294 
	C488.657501,661.938477 485.724091,663.218750 483.616333,663.312378 
	C481.332367,663.413818 479.043579,663.898926 476.805939,664.425232 
	C474.128448,665.054993 471.577393,666.146179 471.493896,669.423218 
	C471.412170,672.630981 473.158905,674.674133 477.075195,675.596069 
z"/>
<path fill="#000000" opacity="1.000000" stroke="none" 
	d="
M304.337067,659.980225 
	C304.242981,668.475037 304.829132,676.440979 305.974182,684.350464 
	C306.394196,687.252136 305.465881,688.317383 302.618195,688.352173 
	C297.012085,688.420593 290.622345,690.315857 290.041321,681.643982 
	C286.946533,682.267090 285.952545,684.210754 284.384155,685.371704 
	C277.913055,690.161865 270.828796,691.107971 263.716919,687.543762 
	C256.728058,684.041260 252.504272,678.278503 252.682724,670.003113 
	C252.770767,665.920227 254.355453,662.248047 257.486328,659.950989 
	C264.661316,654.686829 272.326324,650.331726 281.833344,651.463684 
	C283.255585,651.633057 284.813843,652.064941 286.119263,650.951355 
	C285.156647,645.079163 280.553253,641.838135 273.795563,642.486450 
	C270.328461,642.819031 266.867188,643.370789 263.453827,644.070129 
	C257.574341,645.274719 258.361237,640.019592 256.913422,637.222290 
	C255.384125,634.267578 257.302612,632.697571 260.166718,631.922302 
	C269.368927,629.431274 278.421204,627.266968 288.057770,630.601074 
	C298.025452,634.049805 303.584259,640.451538 304.205170,650.994263 
	C304.371490,653.818481 304.297272,656.656982 304.337067,659.980225 
M284.307465,673.960388 
	C287.965210,671.818787 288.636169,668.479919 287.065094,665.004333 
	C285.524445,661.596130 282.182770,662.315552 279.220337,662.806763 
	C276.770966,663.213013 274.367401,663.775391 272.226471,665.138672 
	C269.855774,666.648315 268.857849,668.807678 269.576630,671.491394 
	C270.281250,674.122314 272.007812,675.688843 274.941040,675.713684 
	C277.927124,675.739014 280.895813,675.812988 284.307465,673.960388 
z"/>
<path fill="#000000" opacity="1.000000" stroke="none" 
	d="
M329.654907,631.268127 
	C331.353882,632.747498 332.392059,631.488403 333.547699,630.990417 
	C346.659332,625.341003 363.152283,635.932190 363.290192,650.167480 
	C363.396698,661.160645 363.184662,672.158386 363.413177,683.147888 
	C363.497406,687.198120 361.847290,688.376282 358.113403,688.344971 
	C346.412231,688.246582 347.843903,689.474365 347.765503,678.449646 
	C347.707550,670.296570 348.076660,662.126587 346.835541,654.007324 
	C345.950226,648.215271 341.820435,643.949707 337.270325,644.389465 
	C331.169098,644.979126 326.995148,649.201599 327.394958,655.214417 
	C328.013947,664.523315 328.376587,673.822571 328.420959,683.151550 
	C328.439240,686.999390 327.285675,688.655212 323.258362,688.332031 
	C319.648224,688.042358 315.996521,688.271057 312.045929,688.271057 
	C309.380371,669.061829 312.199158,650.028076 309.532166,630.765991 
	C316.294373,629.070679 322.821838,630.817200 329.654907,631.268127 
z"/>
<path fill="#000000" opacity="1.000000" stroke="none" 
	d="
M700.830750,592.110168 
	C700.702637,586.123413 704.443237,585.113708 708.775391,585.110291 
	C724.259827,585.098022 739.748169,584.997437 755.226990,585.317444 
	C762.557068,585.468933 769.862793,585.246460 777.179626,585.210388 
	C792.991333,585.132446 808.805359,585.515320 824.618408,585.712524 
	C828.082092,585.755798 831.178101,586.682251 831.465454,590.691772 
	C831.745544,594.599548 828.902344,596.633057 825.666382,597.905518 
	C824.490173,598.368042 823.038513,598.200012 821.712463,598.201416 
	C783.744812,598.241516 745.776978,598.231934 707.809570,598.342346 
	C703.599609,598.354675 700.398865,597.812256 700.830750,592.110168 
z"/>
<path fill="#000000" opacity="1.000000" stroke="none" 
	d="
M433.773193,645.000427 
	C433.370697,634.374756 434.311890,624.211731 432.922241,614.113403 
	C432.518463,611.179382 433.676727,609.759460 436.764557,609.827576 
	C440.586609,609.912048 444.413361,609.785339 448.238068,609.752258 
	C450.874176,609.729431 452.416809,610.939087 452.172333,613.673767 
	C449.977875,638.223206 451.896667,662.831604 451.095032,688.181458 
	C446.363037,688.181458 441.612122,688.303528 436.871002,688.140686 
	C433.402710,688.021606 433.819641,685.152100 433.808685,682.918701 
	C433.747437,670.446167 433.778137,657.973206 433.773193,645.000427 
z"/>
<path fill="#000000" opacity="1.000000" stroke="none" 
	d="
M783.561401,671.638489 
	C783.608704,659.002502 783.739197,646.835449 783.617310,634.670898 
	C783.581360,631.079590 784.655396,629.336121 788.446228,629.708618 
	C790.261719,629.887085 792.122009,629.869324 793.940491,629.703918 
	C797.873047,629.346252 800.964417,629.959900 800.594116,634.840820 
	C802.570740,635.290771 803.294250,633.955627 804.209778,633.097412 
	C806.467834,630.980530 809.161987,629.695923 812.110657,629.001709 
	C819.799988,627.191406 821.630188,628.695374 821.324463,636.390137 
	C821.030151,643.798157 821.030151,643.798218 813.817566,645.355347 
	C804.425720,647.382996 801.301331,651.265381 801.305725,660.886230 
	C801.309753,669.862793 801.306519,678.839355 801.306519,688.004089 
	C796.111877,688.379089 791.364502,688.718872 786.617737,689.065918 
	C784.418945,689.226624 783.897278,687.890991 783.532227,686.028015 
	C782.619202,681.368530 782.840454,676.746826 783.561401,671.638489 
z"/>
<path fill="#000000" opacity="1.000000" stroke="none" 
	d="
M757.559326,708.943237 
	C763.406738,710.864441 761.032410,715.369385 761.079041,718.802002 
	C761.126587,722.299500 757.793091,721.566467 755.722412,721.687317 
	C735.612427,722.861206 715.476440,721.979065 695.353638,722.306030 
	C692.526184,722.351990 689.696899,722.369141 686.869568,722.327026 
	C681.785889,722.251343 679.838257,720.375549 679.719910,715.535889 
	C679.601746,710.703430 681.427307,708.745789 686.738892,708.742065 
	C710.194458,708.725769 733.649963,708.823608 757.559326,708.943237 
z"/>
<path fill="#000000" opacity="1.000000" stroke="none" 
	d="
M800.999878,722.154907 
	C794.673401,722.206299 788.846069,722.322998 783.020142,722.273315 
	C778.535583,722.235046 776.906006,720.078918 776.773132,714.652588 
	C776.671936,710.520508 778.377380,708.577759 782.712402,708.627625 
	C795.696472,708.776855 808.683105,708.700439 821.668518,708.758362 
	C822.983826,708.764160 824.387329,708.846313 825.594727,709.303162 
	C828.760254,710.501282 831.386658,712.752625 831.005981,716.248840 
	C830.643677,719.575928 827.630432,720.976379 824.442017,721.341858 
	C816.818848,722.215698 809.158386,722.194519 800.999878,722.154907 
z"/>
<path fill="#000000" opacity="1.000000" stroke="none" 
	d="
M571.284546,722.203674 
	C568.014648,721.871704 565.214600,721.566772 562.415833,721.250427 
	C559.389038,720.908386 558.666077,719.414978 560.306458,716.860352 
	C562.947571,712.747253 566.384949,709.738586 571.559448,709.715454 
	C580.861206,709.674011 590.163696,709.752747 599.465515,709.831116 
	C603.421631,709.864441 606.216919,711.110657 606.170044,715.864014 
	C606.124512,720.471985 603.394409,721.154114 599.632202,721.352966 
	C590.343628,721.843872 581.065979,722.507874 571.284546,722.203674 
z"/>
<path fill="#000000" opacity="1.000000" stroke="none" 
	d="
M652.350830,709.446899 
	C657.063477,709.171814 660.238770,710.099365 660.820740,715.223938 
	C661.401428,720.338379 659.934387,722.261597 654.832642,722.239380 
	C647.371643,722.206848 639.910461,722.195862 632.449585,722.226074 
	C628.389771,722.242493 625.103210,721.339111 624.948242,716.403015 
	C624.806580,711.888306 626.539978,709.396484 631.536499,709.213562 
	C638.339294,708.964417 645.116760,708.880310 652.350830,709.446899 
z"/>
<path fill="#000000" opacity="1.000000" stroke="none" 
	d="
M515.838745,665.460938 
	C511.000854,666.153992 509.594086,664.176758 509.686981,659.871155 
	C509.902893,649.864502 508.566559,650.684143 518.645996,650.685364 
	C522.627075,650.685791 526.607971,650.868652 530.589233,650.956848 
	C533.764954,651.027161 535.526062,652.320496 535.312012,655.816162 
	C535.130737,658.776794 535.274597,661.757324 535.274597,665.444702 
	C528.722046,665.444702 522.495422,665.444702 515.838745,665.460938 
z"/>
<path fill="#000000" opacity="1.000000" stroke="none" 
	d="
M440.934937,708.742554 
	C444.546387,709.041565 447.689301,709.217224 450.796234,709.650757 
	C455.029938,710.241577 456.504608,712.968872 456.390747,717.045410 
	C456.309875,719.941711 455.115112,721.326538 452.209686,721.315430 
	C445.253967,721.288818 438.298096,721.293457 431.342316,721.306763 
	C426.521912,721.315918 425.842041,718.125793 425.671600,714.294556 
	C425.483521,710.067444 427.810547,708.737488 431.507294,708.727600 
	C434.488281,708.719604 437.469330,708.731140 440.934937,708.742554 
z"/>
<path fill="#000000" opacity="1.000000" stroke="none" 
	d="
M480.251892,744.656799 
	C482.776703,748.628296 484.979309,748.029846 487.374359,744.942444 
	C488.558228,743.416260 489.903320,741.346375 492.196228,742.103333 
	C494.850342,742.979553 494.159088,745.627197 494.244690,747.693054 
	C494.361664,750.516663 494.342865,753.347412 494.322906,756.174683 
	C494.308868,758.164795 494.511536,760.695740 491.743378,760.709961 
	C488.993805,760.724121 489.909119,758.133545 489.663666,756.474487 
	C489.569153,755.835693 489.504822,755.192505 489.372223,754.103271 
	C486.280579,755.470093 483.393066,758.209351 480.222351,754.577271 
	C478.726624,756.833740 479.841949,760.201172 475.909454,761.111633 
	C473.744476,754.871643 474.664490,748.730103 475.127899,742.719421 
	C477.719635,741.913574 478.815582,743.284424 480.251892,744.656799 
z"/>
<path fill="#000000" opacity="1.000000" stroke="none" 
	d="
M427.493683,749.724487 
	C427.218597,746.988403 427.008514,744.679932 428.432770,742.616821 
	C433.101562,741.723938 434.066071,747.559509 437.919525,747.842407 
	C438.966705,747.284058 438.780212,746.386780 438.883270,745.594482 
	C439.100494,743.924805 438.254333,741.511841 441.121460,741.480530 
	C443.722595,741.452087 444.326385,743.348633 444.315247,745.590393 
	C444.295441,749.577820 444.352478,753.565918 444.313202,757.553040 
	C444.300537,758.837402 444.561676,760.379456 443.029144,761.036743 
	C441.337982,761.761902 440.229187,760.553711 439.136292,759.525696 
	C437.239532,757.741272 435.354919,755.943909 433.455872,754.143188 
	C432.967865,754.665588 432.670715,754.861755 432.546631,755.136108 
	C431.691071,757.027649 433.618591,760.802490 430.138000,760.678040 
	C426.622589,760.552307 428.004944,756.876953 427.678802,754.627808 
	C427.465729,753.158508 427.571350,751.643066 427.493683,749.724487 
z"/>
<path fill="#000000" opacity="1.000000" stroke="none" 
	d="
M380.107422,755.404968 
	C380.046173,750.873779 380.046173,746.776306 380.046173,742.507202 
	C385.293762,742.069031 386.524963,747.739624 390.842041,747.971252 
	C392.292999,747.082031 391.435944,745.366150 391.808502,744.016296 
	C392.160400,742.741089 392.813049,741.912598 394.219086,742.021851 
	C395.371002,742.111328 396.141022,742.903259 396.136444,743.953491 
	C396.110901,749.823669 397.265381,755.799744 395.064026,761.754456 
	C390.101624,760.814575 389.310394,755.556763 385.554810,753.744629 
	C383.888428,754.947815 385.210114,756.528320 384.968384,757.870789 
	C384.709961,759.305969 384.980194,761.224121 383.047180,761.415771 
	C381.062408,761.612610 380.878876,759.782593 380.625214,758.288513 
	C380.486176,757.469666 380.321686,756.655090 380.107422,755.404968 
z"/>
<path fill="#000000" opacity="1.000000" stroke="none" 
	d="
M458.412964,761.213135 
	C447.698059,761.308044 448.729828,762.017700 448.681091,752.371216 
	C448.636597,743.569763 448.670654,743.572510 457.604095,742.447815 
	C458.570801,742.326111 459.530212,742.146301 461.187714,741.883118 
	C461.187714,748.042419 461.246338,753.882202 461.137878,759.718933 
	C461.116394,760.873901 459.860413,761.074036 458.412964,761.213135 
z"/>
<path fill="#000000" opacity="1.000000" stroke="none" 
	d="
M696.791870,763.643677 
	C693.688965,767.288879 689.967651,767.790100 686.086914,766.590332 
	C682.701660,765.543884 680.232605,763.175232 680.081238,759.401489 
	C679.971313,756.660645 680.766418,753.930786 683.639160,752.795654 
	C687.520935,751.261719 691.592346,750.869751 694.900085,753.950623 
	C697.569214,756.436646 699.177979,759.556213 696.791870,763.643677 
z"/>
<path fill="#000000" opacity="1.000000" stroke="none" 
	d="
M533.645569,758.708618 
	C533.399231,762.669983 531.378662,761.368347 529.684387,760.273743 
	C528.472412,759.490845 527.789734,757.935120 526.120239,757.759949 
	C524.843445,757.750916 524.543274,758.748840 524.133240,759.657715 
	C523.570312,760.905273 522.539062,761.259277 521.265503,761.051514 
	C519.858643,760.821960 519.298889,759.743103 519.283142,758.550842 
	C519.211548,753.137573 519.251770,747.722778 519.251770,742.048767 
	C522.651611,741.163147 525.846985,742.000427 528.774292,743.507874 
	C531.963806,745.150391 533.522888,748.332764 531.963440,751.453918 
	C530.365845,754.651306 531.693909,756.363892 533.645569,758.708618 
z"/>
<path fill="#000000" opacity="1.000000" stroke="none" 
	d="
M566.126343,751.684570 
	C565.449585,754.977356 562.389954,753.812866 560.804260,755.234619 
	C561.882812,756.115784 563.011536,755.530579 564.059631,755.417847 
	C565.687439,755.242676 566.644470,755.863770 566.890259,757.456604 
	C567.133911,759.035339 566.301270,759.788879 564.857544,760.376953 
	C557.930969,763.198120 554.813538,761.315552 554.674561,754.095398 
	C554.645752,752.598083 554.634521,751.100281 554.620361,749.602722 
	C554.548096,741.953491 557.150391,739.988037 564.671753,741.764709 
	C566.823364,742.273010 567.316956,743.601013 567.138367,745.395508 
	C566.941895,747.369446 566.518372,749.320801 566.126343,751.684570 
z"/>
<path fill="#000000" opacity="1.000000" stroke="none" 
	d="
M366.256256,742.107056 
	C371.798157,742.504639 374.742188,745.662903 376.076691,750.339294 
	C377.179657,754.204224 375.241913,757.040955 372.247040,759.367188 
	C368.958221,761.921875 365.660034,762.466675 362.287659,759.670959 
	C358.366364,756.420227 356.981201,751.811768 358.893646,748.206055 
	C360.422455,745.323669 362.648621,743.134216 366.256256,742.107056 
M366.578064,747.534180 
	C363.783997,748.365417 363.085449,750.427429 363.679596,752.961304 
	C364.080353,754.670410 365.272797,755.941406 367.169434,756.027405 
	C368.923218,756.106873 369.923279,754.860840 370.393646,753.397522 
	C371.234283,750.782410 370.243652,748.873108 367.722687,747.772461 
	C367.571045,747.706299 367.410217,747.661072 366.578064,747.534180 
z"/>
<path fill="#000000" opacity="1.000000" stroke="none" 
	d="
M537.969727,742.540710 
	C541.508728,742.177429 541.023743,745.088806 541.888611,747.040161 
	C544.553894,746.933777 545.445679,744.684387 546.996826,743.376526 
	C548.146973,742.406677 549.508118,741.270935 550.879272,742.800476 
	C551.932861,743.975769 551.479492,745.527344 550.255188,746.277222 
	C545.984863,748.892822 547.322693,751.857300 549.298523,755.144836 
	C550.440979,757.045776 552.055603,759.033142 550.598511,761.636047 
	C547.194641,762.546204 545.671326,759.499878 543.240295,758.166992 
	C541.656128,759.015625 542.177368,762.568115 539.367798,761.705872 
	C537.116028,761.014771 537.778625,758.676025 537.550049,756.952454 
	C536.922119,752.216675 535.924561,747.467651 537.969727,742.540710 
z"/>
<path fill="#000000" opacity="1.000000" stroke="none" 
	d="
M508.865295,745.229126 
	C511.195953,749.461792 513.562622,753.269470 514.572510,757.706604 
	C514.915283,759.212769 515.308105,760.775024 513.717773,761.707825 
	C512.158691,762.622192 511.390259,761.118103 510.457520,760.259399 
	C507.777039,757.791809 505.009857,757.218567 502.185944,759.999878 
	C501.119507,761.050171 499.979370,761.563721 498.680450,760.613464 
	C497.606903,759.828186 497.456177,758.513489 497.966125,757.454163 
	C500.444519,752.305725 503.049072,747.217896 505.499329,742.327515 
	C507.817200,742.325134 508.035278,743.838013 508.865295,745.229126 
z"/>
<path fill="#000000" opacity="1.000000" stroke="none" 
	d="
M626.453125,750.655884 
	C628.406250,754.362915 630.320740,757.692444 627.938904,761.404724 
	C626.736633,761.773560 625.953003,761.376221 625.488770,760.707520 
	C623.267212,757.507202 620.825562,757.382019 618.095093,760.018799 
	C617.204285,760.878967 616.197754,761.398193 614.968201,760.840515 
	C613.650208,760.242737 613.614929,758.966248 613.810608,757.853333 
	C614.737793,752.580627 617.088745,747.799255 619.430420,743.076660 
	C620.515564,740.888000 622.288757,741.859131 623.217224,743.550659 
	C624.404968,745.714722 625.309937,748.033997 626.453125,750.655884 
z"/>
<path fill="#000000" opacity="1.000000" stroke="none" 
	d="
M663.763550,745.493164 
	C661.807983,747.895935 658.588806,746.146851 656.869507,748.323303 
	C657.073364,748.713074 657.153992,749.064453 657.373779,749.256287 
	C659.001343,750.676331 662.809387,748.125427 662.909790,751.703125 
	C662.994202,754.713196 659.072205,753.353699 657.574768,754.995850 
	C659.288757,757.230225 664.908875,754.749939 663.851624,759.352234 
	C662.976379,763.162415 658.741516,760.718933 656.060730,761.292969 
	C654.974792,761.525513 653.772339,761.214111 652.135010,761.123169 
	C652.135010,755.169495 652.135010,749.302429 652.135010,742.919006 
	C655.172180,742.571411 658.394226,742.104736 661.633179,741.864868 
	C663.954895,741.692871 664.422974,743.157654 663.763550,745.493164 
z"/>
<path fill="#000000" opacity="1.000000" stroke="none" 
	d="
M644.882202,748.016479 
	C641.029175,746.758606 638.208618,747.736572 637.771729,751.470520 
	C637.309509,755.420959 640.379089,755.874451 643.514832,755.565002 
	C645.208984,755.397827 647.203369,755.098267 647.166321,757.596130 
	C647.125732,760.329224 645.307617,761.996521 642.681519,762.029175 
	C637.983459,762.087524 634.857300,759.217712 632.949707,755.316895 
	C630.491882,750.290649 634.557617,742.540405 640.000366,741.373901 
	C642.919373,740.748291 645.358032,741.775208 646.852783,744.308838 
	C647.823364,745.954224 647.572388,747.575867 644.882202,748.016479 
z"/>
<path fill="#000000" opacity="1.000000" stroke="none" 
	d="
M811.554993,758.378784 
	C814.463379,755.957947 817.576904,756.509155 820.471008,756.847595 
	C824.154663,757.278442 826.083313,760.037720 825.936768,763.478943 
	C825.795410,766.797668 823.132507,768.056213 819.980774,768.312561 
	C811.376282,769.012451 808.354553,765.697998 811.554993,758.378784 
z"/>
<path fill="#000000" opacity="1.000000" stroke="none" 
	d="
M594.991699,751.415161 
	C592.318359,755.122192 586.855469,754.687256 585.078613,759.543762 
	C583.556152,754.378296 582.234070,749.230774 583.321960,744.263245 
	C584.137207,740.541016 587.870911,741.785706 590.494141,742.753052 
	C594.268311,744.144836 595.834106,747.023987 594.991699,751.415161 
z"/>
<path fill="#000000" opacity="1.000000" stroke="none" 
	d="
M580.613037,747.735352 
	C578.337036,751.986206 579.964661,756.921997 576.961914,761.069702 
	C573.829468,758.893433 574.763489,755.852783 574.746582,753.292114 
	C574.724182,749.891968 574.587219,746.886047 570.256287,746.387512 
	C569.136902,746.258667 568.473816,745.486755 568.461670,744.356873 
	C568.450623,743.329468 568.740540,742.279236 569.809937,741.903381 
	C573.400879,740.641663 577.127869,740.618774 580.471375,742.288879 
	C582.638977,743.371582 582.278015,745.577148 580.613037,747.735352 
z"/>
<path fill="#000000" opacity="1.000000" stroke="none" 
	d="
M602.244263,744.175781 
	C602.507263,746.394531 602.838318,748.206726 602.826538,750.016724 
	C602.802734,753.665771 604.397827,755.553894 608.132446,755.666626 
	C609.968933,755.722046 612.152771,755.976135 611.952881,758.480347 
	C611.775085,760.706604 609.779785,761.053223 607.852661,761.223145 
	C599.401123,761.968323 598.697388,761.365356 598.664185,752.960083 
	C598.653076,750.148621 598.491821,747.308716 598.827026,744.533508 
	C599.134949,741.984009 600.415527,741.287109 602.244263,744.175781 
z"/>
<path fill="#000000" opacity="1.000000" stroke="none" 
	d="
M401.678436,750.065918 
	C402.351532,746.990723 400.046539,742.272278 404.247498,742.324463 
	C407.948486,742.370422 406.178284,746.934204 406.237579,749.437927 
	C406.331024,753.381409 406.524170,756.571045 411.786774,755.825806 
	C412.962250,755.659302 414.212524,755.949951 414.309204,757.536377 
	C414.402435,759.066528 413.748138,760.100037 412.111725,760.304810 
	C411.946533,760.325439 411.776703,760.325256 411.616119,760.364075 
	C402.109131,762.658142 401.673706,762.228271 401.678436,750.065918 
z"/>
<path fill="#000000" opacity="1.000000" stroke="none" 
	d="
M423.284729,753.835205 
	C422.847504,756.698059 424.242615,760.792725 420.471680,760.549927 
	C417.357178,760.349487 418.896576,756.439636 418.681274,754.178162 
	C418.414581,751.377441 418.587708,748.525085 418.709259,745.701050 
	C418.775635,744.158508 418.334778,741.950562 420.918732,742.115479 
	C423.120361,742.255981 423.223999,744.191284 423.263733,745.879578 
	C423.322418,748.373840 423.284119,750.870422 423.284729,753.835205 
z"/>
<path fill="#000000" opacity="1.000000" stroke="none" 
	d="
M488.689819,426.216003 
	C487.647522,423.348694 486.712006,420.855530 485.783722,418.359680 
	C484.294739,414.356323 484.470886,410.824097 488.596771,408.399750 
	C488.878113,408.234406 489.215149,408.010345 489.327515,407.733032 
	C492.490753,399.927429 498.373352,402.289642 503.970459,403.860016 
	C511.883728,406.080261 519.186707,409.674500 526.144897,414.002075 
	C532.808228,418.146210 534.773010,424.846893 535.216980,431.969238 
	C535.660339,439.080688 535.314270,446.241364 535.314270,453.611053 
	C531.700684,455.599792 527.991638,453.315704 524.286987,453.250427 
	C519.161621,453.160095 513.982727,452.727234 509.026825,451.270905 
	C499.771301,448.551147 494.297638,442.037994 491.336212,433.102692 
	C490.604126,430.893890 489.651245,428.758240 488.689819,426.216003 
z"/>
<path fill="#000000" opacity="1.000000" stroke="none" 
	d="
M519.168396,316.767761 
	C523.289307,316.692963 526.941956,316.693451 530.570312,315.987701 
	C532.595154,315.593842 535.059692,315.584869 535.057983,318.414734 
	C535.052612,327.336639 536.687561,336.353058 533.445435,345.120850 
	C531.634644,350.017792 528.765991,353.717072 524.151611,356.352600 
	C516.462708,360.744171 508.502075,364.418610 500.166290,367.408539 
	C496.176025,368.839752 493.896301,367.535706 491.093079,364.693390 
	C484.653473,358.163940 483.942780,351.282654 488.125702,343.442017 
	C489.058075,341.694275 489.676910,339.761200 490.293060,337.865662 
	C494.770630,324.090851 504.795898,317.826294 519.168396,316.767761 
z"/>
<path fill="#000000" opacity="1.000000" stroke="none" 
	d="
M438.028870,367.569641 
	C428.557281,365.863892 420.014954,362.737823 412.401031,357.470154 
	C405.271881,352.537811 401.174805,345.917053 401.621674,336.857025 
	C401.891510,331.385559 401.765320,325.891754 401.717773,320.408813 
	C401.696747,317.983032 402.520599,316.685760 405.151794,316.718079 
	C414.646729,316.834717 424.071381,317.466492 433.105042,320.691101 
	C436.996338,322.080139 440.165466,324.566833 441.748260,328.477448 
	C444.671143,335.699036 447.897919,342.824738 449.489624,350.520203 
	C451.052246,358.075226 446.120911,365.705170 438.028870,367.569641 
z"/>
<path fill="#000000" opacity="1.000000" stroke="none" 
	d="
M435.129822,380.288116 
	C436.916382,388.071869 435.742340,391.177216 429.146179,394.561127 
	C420.572937,398.959351 411.810150,402.987091 403.155029,407.227570 
	C401.332275,408.120605 399.713684,407.794983 397.900726,407.156158 
	C386.507996,403.141510 380.292999,393.365662 372.953857,384.852112 
	C371.470917,383.131836 372.572357,381.578705 374.052704,380.667358 
	C380.071411,376.962189 384.505951,371.437561 389.938354,367.078888 
	C396.071411,362.157928 402.522949,360.938629 409.727905,365.258087 
	C416.414337,369.266663 423.105560,373.332275 430.428253,376.179321 
	C432.309143,376.910645 433.897858,378.146027 435.129822,380.288116 
z"/>
<path fill="#000000" opacity="1.000000" stroke="none" 
	d="
M543.002686,404.214478 
	C538.000916,407.693390 533.377380,408.053406 528.282837,404.946686 
	C520.597839,400.260345 511.653503,398.120667 503.984802,393.327423 
	C498.229340,389.730042 497.978699,380.483887 503.922943,377.078583 
	C512.295410,372.282196 520.877441,367.831543 529.522278,363.540161 
	C533.301147,361.664307 537.346619,362.409332 541.094604,364.252747 
	C549.796570,368.532806 556.048767,375.823639 563.037720,382.204010 
	C564.515076,383.552704 563.942749,384.851013 562.712769,386.048584 
	C556.396484,392.198517 550.589111,398.897339 543.002686,404.214478 
z"/>
<path fill="#000000" opacity="1.000000" stroke="none" 
	d="
M473.619720,351.125305 
	C464.014404,354.268127 461.003113,352.855316 457.481659,344.484680 
	C455.162537,338.972046 452.575348,333.562866 449.900421,328.211243 
	C444.918579,318.244293 445.684113,311.980804 453.051056,303.639740 
	C457.226868,298.911713 462.567810,295.293884 466.021912,289.870056 
	C466.949188,288.413971 468.538574,287.839111 469.781586,289.369171 
	C476.238678,297.317383 485.195251,303.116852 489.761658,312.699921 
	C490.712067,314.694366 492.070557,316.748535 490.921875,318.812897 
	C485.037048,329.388641 480.494354,340.672089 473.619720,351.125305 
z"/>
<path fill="#000000" opacity="1.000000" stroke="none" 
	d="
M473.163971,418.483917 
	C475.848358,420.527100 476.967834,423.176300 477.958038,425.807098 
	C480.371094,432.218201 483.133759,438.413513 487.242950,443.961914 
	C490.073303,447.783600 490.102509,451.925232 488.332092,456.258148 
	C485.596924,462.952209 476.636017,474.894653 467.824158,483.156982 
	C461.350739,475.047211 452.922211,468.604065 448.583069,458.788330 
	C446.564972,454.222992 445.971497,450.049683 448.659668,445.118164 
	C452.222870,438.581543 454.523468,431.362854 457.461273,424.477661 
	C461.241211,415.618896 463.753326,414.637360 473.163971,418.483917 
z"/>
<path fill="#000000" opacity="1.000000" stroke="none" 
	d="
M447.426422,373.667450 
	C453.318634,365.817322 459.503815,359.202087 470.240387,360.540497 
	C480.315125,361.796448 486.455536,368.507751 490.182434,376.841614 
	C493.282898,383.774780 491.966400,391.096375 486.686890,397.363983 
	C482.405884,402.446228 477.888123,406.956238 471.086273,408.277557 
	C458.978088,410.629669 445.697876,400.717010 444.814362,388.377991 
	C444.464844,383.497070 443.612396,378.304321 447.426422,373.667450 
z"/>
<path fill="#000000" opacity="1.000000" stroke="none" 
	d="
M411.294495,413.171265 
	C415.358673,411.178650 419.102509,409.369202 422.837738,407.542053 
	C426.991394,405.510162 429.824554,407.202820 432.003876,410.764221 
	C432.933044,412.282715 432.798645,415.533600 435.689728,414.183258 
	C438.317291,412.955994 440.926392,410.966248 440.698212,407.400879 
	C440.608582,406.000488 440.011536,404.632599 439.585510,403.022888 
	C449.583191,406.794098 451.532654,410.651978 448.851532,420.078705 
	C446.790405,427.325531 443.269287,433.949402 440.248199,440.777832 
	C437.596954,446.770172 432.017090,449.415710 426.169678,451.027527 
	C418.330780,453.188263 410.149384,453.045624 401.570190,454.140106 
	C402.194397,444.088043 400.690002,434.490356 402.533295,424.931976 
	C403.538422,419.720123 405.972076,415.617004 411.294495,413.171265 
z"/>
</svg>